<?xml version="1.0" encoding="UTF-8"?>
<!DOCTYPE svg PUBLIC "-//W3C//DTD SVG 1.1//EN" "http://www.w3.org/Graphics/SVG/1.1/DTD/svg11.dtd">
<!-- Creator: CorelDRAW -->
<svg xmlns="http://www.w3.org/2000/svg" xml:space="preserve" width="2048px" height="2048px" style="shape-rendering:geometricPrecision; text-rendering:geometricPrecision; image-rendering:optimizeQuality; fill-rule:evenodd; clip-rule:evenodd"
viewBox="0 0 2048 2048"
 xmlns:xlink="http://www.w3.org/1999/xlink">
 <defs>
  <style type="text/css">
   <![CDATA[
    .fil2 {fill:none}
    .fil1 {fill:#4527A0}
    .fil0 {fill:#5E35B1}
    .fil4 {fill:#CA2B03}
    .fil7 {fill:#CFCFCE}
    .fil5 {fill:#DD2C00}
    .fil8 {fill:#FFFFFE}
    .fil6 {fill:#E6E6E5;fill-rule:nonzero}
    .fil3 {fill:#FFFFFE;fill-rule:nonzero}
   ]]>
  </style>
   <clipPath id="id0">
    <path d="M1024 -0.0011811c565.541,0 1024,458.461 1024,1024 0,565.541 -458.461,1024 -1024,1024 -565.541,0 -1024,-458.461 -1024,-1024 0,-565.541 458.461,-1024 1024,-1024z"/>
   </clipPath>
 </defs>
 <g id="Layer_x0020_1">
  <metadata id="CorelCorpID_0Corel-Layer"/>
  <path class="fil0" d="M1024 -0.0011811c565.541,0 1024,458.461 1024,1024 0,565.541 -458.461,1024 -1024,1024 -565.541,0 -1024,-458.461 -1024,-1024 0,-565.541 458.461,-1024 1024,-1024z"/>
  <g style="clip-path:url(#id0)">
   <g id="_517155952">
    <g>
     <polygon id="_5279132241" class="fil1" points="1314.81,823.537 2450.69,1959.42 2450.69,2324.84 1314.81,1188.96 "/>
     <polygon id="_527912816" class="fil1" points="1314.81,1188.96 2450.69,2324.84 2450.57,2327.22 2450.22,2329.53 2449.65,2331.76 2448.87,2333.9 2447.89,2335.93 2446.72,2337.85 2445.38,2339.64 2443.88,2341.29 2442.23,2342.8 2440.44,2344.13 2438.52,2345.3 2436.48,2346.28 2434.35,2347.06 2432.12,2347.64 2429.81,2347.99 2427.43,2348.11 1291.55,1212.23 1293.93,1212.1 1296.24,1211.75 1298.47,1211.18 1300.6,1210.4 1302.64,1209.42 1304.56,1208.25 1306.35,1206.91 1308,1205.41 1309.5,1203.76 1310.84,1201.97 1312,1200.05 1312.99,1198.02 1313.77,1195.88 1314.34,1193.65 1314.69,1191.34 "/>
     <polygon id="_527914568" class="fil1" points="733.186,805.229 1869.07,1941.11 1865.95,1939.75 1862.87,1938.36 1859.82,1936.93 1856.8,1935.47 1853.81,1933.98 1850.85,1932.45 1847.92,1930.89 1845.02,1929.29 1842.16,1927.67 1839.33,1926.01 1836.54,1924.32 1833.78,1922.6 1831.05,1920.85 1828.37,1919.07 1825.71,1917.26 1823.1,1915.42 1820.52,1913.55 1817.97,1911.65 1815.47,1909.73 1813,1907.77 1810.57,1905.79 1808.19,1903.77 1805.84,1901.74 1803.53,1899.67 1801.26,1897.58 1799.03,1895.46 1796.85,1893.31 660.965,757.432 663.151,759.577 665.378,761.696 667.646,763.788 669.955,765.853 672.304,767.892 674.692,769.903 677.121,771.888 679.587,773.844 682.092,775.771 684.635,777.669 687.214,779.539 689.832,781.38 692.484,783.191 695.174,784.972 697.899,786.722 700.658,788.442 703.452,790.13 706.281,791.787 709.141,793.412 712.036,795.005 714.964,796.567 717.924,798.094 720.915,799.589 723.937,801.05 726.99,802.477 730.073,803.871 "/>
     <polygon id="_527914472" class="fil1" points="756.453,1212.23 1892.33,2348.11 1889.96,2347.99 1887.65,2347.64 1885.42,2347.06 1883.28,2346.28 1881.24,2345.3 1879.33,2344.13 1877.53,2342.8 1875.88,2341.29 740.001,1205.41 741.654,1206.91 743.444,1208.25 745.362,1209.42 747.396,1210.4 749.534,1211.18 751.764,1211.75 754.074,1212.1 "/>
     <polygon id="_527914592" class="fil1" points="1291.55,1212.23 2427.43,2348.11 1892.33,2348.11 756.453,1212.23 "/>
     <polygon id="_527915456" class="fil1" points="1393.83,554.288 2529.72,1690.17 2533.09,1694.15 2536.33,1698.19 2539.45,1702.3 2542.43,1706.47 2545.28,1710.7 2547.99,1714.99 2550.57,1719.34 2553,1723.75 2555.29,1728.22 2557.44,1732.73 2559.44,1737.3 2561.3,1741.93 2563,1746.6 2564.56,1751.32 2565.95,1756.08 2567.19,1760.89 2568.27,1765.75 2569.2,1770.65 2569.95,1775.58 2570.55,1780.56 2570.97,1785.57 2571.23,1790.62 2571.32,1795.7 1435.44,659.822 1435.35,654.739 1435.09,649.688 1434.67,644.676 1434.07,639.7 1433.31,634.763 1432.39,629.866 1431.31,625.012 1430.07,620.2 1428.67,615.434 1427.12,610.714 1425.42,606.043 1423.56,601.421 1421.56,596.85 1419.41,592.333 1417.12,587.869 1414.68,583.46 1412.11,579.109 1409.4,574.817 1406.55,570.585 1403.56,566.415 1400.45,562.307 1397.21,558.265 "/>
     <polygon id="_527915216" class="fil1" points="1435.44,659.822 2571.32,1795.7 2571.28,1799.16 2571.16,1802.6 2570.96,1806.03 2570.68,1809.44 2570.33,1812.84 2569.9,1816.21 2569.39,1819.57 2568.81,1822.91 2568.15,1826.23 2567.41,1829.54 2566.61,1832.82 2565.73,1836.08 2564.77,1839.33 2563.75,1842.55 2562.65,1845.75 2561.49,1848.93 2560.25,1852.08 2558.95,1855.22 2557.57,1858.33 2556.13,1861.41 2554.62,1864.48 2553.05,1867.51 2551.41,1870.52 2549.7,1873.51 2547.93,1876.47 2546.09,1879.4 2544.19,1882.31 2542.23,1885.19 2540.21,1888.04 2538.12,1890.86 2535.98,1893.65 2533.77,1896.42 1397.89,760.536 1400.1,757.772 1402.24,754.979 1404.33,752.157 1406.35,749.306 1408.31,746.428 1410.21,743.521 1412.05,740.588 1413.82,737.627 1415.53,734.642 1417.17,731.63 1418.74,728.593 1420.25,725.53 1421.69,722.445 1423.07,719.334 1424.37,716.202 1425.61,713.045 1426.77,709.867 1427.87,706.667 1428.89,703.445 1429.84,700.202 1430.72,696.938 1431.53,693.655 1432.26,690.352 1432.92,687.03 1433.51,683.69 1434.02,680.331 1434.45,676.954 1434.8,673.56 1435.08,670.15 1435.28,666.722 1435.4,663.28 "/>
     <polygon id="_527915648" class="fil1" points="1397.89,760.536 2533.77,1896.42 2531.81,1898.79 2529.8,1901.14 2527.75,1903.47 2525.65,1905.77 2523.51,1908.05 2521.33,1910.3 2519.11,1912.53 2516.84,1914.73 2514.53,1916.91 2512.18,1919.06 2509.79,1921.18 2507.35,1923.28 2504.88,1925.35 2502.37,1927.39 2499.82,1929.4 2497.23,1931.39 2494.6,1933.35 2491.94,1935.28 2489.24,1937.18 2486.5,1939.05 2483.72,1940.89 2480.91,1942.7 2478.07,1944.48 2475.19,1946.23 2472.27,1947.95 2469.32,1949.63 2466.34,1951.29 2463.32,1952.91 2460.27,1954.5 2457.19,1956.06 2454.08,1957.58 2450.94,1959.07 1315.06,823.189 1318.2,821.698 1321.31,820.175 1324.39,818.617 1327.44,817.027 1330.46,815.404 1333.44,813.749 1336.39,812.063 1339.3,810.346 1342.19,808.596 1345.03,806.816 1347.84,805.006 1350.62,803.164 1353.36,801.295 1356.06,799.394 1358.72,797.466 1361.35,795.507 1363.94,793.521 1366.49,791.506 1369,789.464 1371.47,787.394 1373.9,785.297 1376.3,783.173 1378.65,781.023 1380.96,778.847 1383.22,776.645 1385.45,774.418 1387.63,772.164 1389.77,769.887 1391.87,767.585 1393.92,765.259 1395.93,762.909 "/>
     <polygon id="_527915720" class="fil1" points="1315.06,823.189 2450.94,1959.07 2450.69,1959.19 1314.81,823.303 "/>
     <polygon id="_527915120" class="fil1" points="1314.81,823.303 2450.69,1959.19 2450.69,1959.42 1314.81,823.537 "/>
     <path id="_527915792" class="fil1" d="M2719.88 2569.16l0 0zm-1135.88 -1135.88l0 0z"/>
     <polygon id="_527915096" class="fil1" points="778.769,1318.92 1914.65,2454.8 1916.91,2456.93 1919.11,2459.11 1921.24,2461.35 1923.31,2463.65 787.429,1327.77 785.359,1325.47 783.226,1323.23 781.029,1321.04 "/>
     <polygon id="_527915528" class="fil1" points="787.429,1327.77 1923.31,2463.65 1925.17,2465.7 1927.25,2467.88 1929.55,2470.16 1932.05,2472.55 1934.75,2475.05 798.871,1339.16 796.173,1336.67 793.67,1334.28 791.371,1331.99 789.288,1329.82 "/>
     <polygon id="_527915264" class="fil1" points="1566.28,1389.56 2702.17,2525.44 2702.36,2525.64 2702.55,2525.84 2702.74,2526.04 2702.92,2526.24 1567.04,1390.36 1566.86,1390.16 1566.67,1389.96 1566.48,1389.76 "/>
     <polygon id="_527915168" class="fil1" points="1567.05,1390.36 2702.93,2526.24 2702.93,2526.25 1567.05,1390.37 "/>
     <polygon id="_527915888" class="fil1" points="1567.06,1390.37 2702.94,2526.26 2702.95,2526.26 1567.06,1390.38 "/>
     <polygon id="_527916008" class="fil1" points="1567.07,1390.39 2702.95,2526.27 2702.96,2526.27 1567.07,1390.39 "/>
     <polygon id="_527916104" class="fil1" points="1567.08,1390.4 2702.96,2526.28 2702.97,2526.29 1567.09,1390.4 "/>
     <polygon id="_527915840" class="fil1" points="1567.09,1390.4 2702.97,2526.29 2703.92,2527.33 2704.85,2528.4 2705.75,2529.48 2706.63,2530.59 2707.49,2531.72 2708.32,2532.87 2709.13,2534.03 2709.91,2535.22 2710.66,2536.42 2711.39,2537.64 2712.09,2538.88 2712.77,2540.13 2713.41,2541.41 2714.03,2542.69 2714.62,2544 2715.18,2545.32 2715.71,2546.65 2716.21,2548 2716.68,2549.36 2717.12,2550.74 2717.53,2552.13 2717.91,2553.53 2718.26,2554.95 2718.57,2556.38 2718.85,2557.82 2719.1,2559.27 2719.31,2560.73 2719.5,2562.2 2719.64,2563.68 2719.75,2565.17 2719.83,2566.67 2719.87,2568.18 1583.99,1432.3 1583.95,1430.79 1583.87,1429.29 1583.76,1427.8 1583.61,1426.32 1583.43,1424.85 1583.22,1423.38 1582.97,1421.93 1582.69,1420.49 1582.38,1419.07 1582.03,1417.65 1581.65,1416.25 1581.24,1414.86 1580.8,1413.48 1580.33,1412.12 1579.83,1410.77 1579.3,1409.43 1578.74,1408.11 1578.15,1406.81 1577.53,1405.52 1576.89,1404.25 1576.21,1403 1575.51,1401.76 1574.78,1400.54 1574.03,1399.33 1573.25,1398.15 1572.44,1396.98 1571.61,1395.84 1570.75,1394.71 1569.87,1393.6 1568.97,1392.51 1568.04,1391.45 "/>
     <polygon id="_527884208" class="fil1" points="1583.99,1432.3 2719.87,2568.18 2719.87,2568.19 2719.87,2568.2 2719.87,2568.21 2719.87,2568.22 2719.87,2568.22 2719.87,2568.23 2719.87,2568.24 2719.87,2568.25 1583.99,1432.37 1583.99,1432.36 1583.99,1432.35 1583.99,1432.34 1583.99,1432.33 1583.99,1432.33 1583.99,1432.32 1583.99,1432.31 "/>
     <polygon id="_527884136" class="fil1" points="1583.99,1432.37 2719.87,2568.25 2719.87,2568.36 2719.88,2568.48 2719.88,2568.59 2719.88,2568.7 2719.88,2568.82 2719.88,2568.93 2719.88,2569.04 2719.88,2569.16 2719.86,2570.78 2719.8,2572.39 2719.7,2573.99 2719.55,2575.58 2719.37,2577.16 2719.15,2578.72 2718.89,2580.28 2718.6,2581.82 2718.26,2583.35 2717.89,2584.86 2717.48,2586.36 2717.04,2587.85 2716.56,2589.32 2716.04,2590.77 2715.49,2592.21 2714.91,2593.63 2714.3,2595.03 2713.65,2596.42 2712.97,2597.79 2712.25,2599.13 2711.51,2600.46 2710.73,2601.77 2709.93,2603.06 2709.09,2604.33 2708.23,2605.57 2707.33,2606.8 2706.41,2608 2705.46,2609.18 2704.48,2610.34 2703.48,2611.47 2702.45,2612.58 2701.39,2613.66 1565.51,1477.78 1566.57,1476.69 1567.6,1475.59 1568.6,1474.45 1569.58,1473.3 1570.53,1472.12 1571.45,1470.92 1572.35,1469.69 1573.21,1468.45 1574.05,1467.18 1574.85,1465.89 1575.63,1464.58 1576.37,1463.25 1577.08,1461.9 1577.77,1460.54 1578.42,1459.15 1579.03,1457.75 1579.61,1456.33 1580.16,1454.89 1580.68,1453.43 1581.16,1451.97 1581.6,1450.48 1582.01,1448.98 1582.38,1447.47 1582.71,1445.94 1583.01,1444.4 1583.27,1442.84 1583.49,1441.27 1583.67,1439.7 1583.82,1438.11 1583.92,1436.51 1583.98,1434.89 1584,1433.27 1584,1433.16 1584,1433.05 1584,1432.93 1584,1432.82 1584,1432.71 1583.99,1432.59 1583.99,1432.48 "/>
     <polygon id="_527883992" class="fil1" points="1565.51,1477.78 2701.39,2613.66 2700.76,2614.29 2700.11,2614.91 2699.45,2615.52 2698.79,2616.12 2698.12,2616.71 2697.44,2617.3 2696.75,2617.87 2696.05,2618.43 1560.17,1482.55 1560.87,1481.99 1561.55,1481.41 1562.24,1480.83 1562.91,1480.24 1563.57,1479.64 1564.23,1479.03 1564.88,1478.41 "/>
     <polygon id="_527883872" class="fil1" points="1560.17,1482.55 2696.05,2618.43 2695.03,2619.23 2693.99,2620.01 2692.94,2620.76 2691.88,2621.49 2690.79,2622.21 2689.7,2622.89 2688.58,2623.56 2687.46,2624.21 2686.32,2624.83 2685.16,2625.43 2683.99,2626.01 2682.81,2626.56 2681.62,2627.09 2680.41,2627.59 2679.19,2628.07 2677.96,2628.53 2676.72,2628.95 2675.46,2629.36 2674.2,2629.74 2672.92,2630.09 2671.64,2630.41 2670.34,2630.71 2669.03,2630.98 2667.72,2631.22 2666.39,2631.44 2665.06,2631.63 2663.72,2631.79 2662.37,2631.92 2661.01,2632.02 2659.65,2632.09 2658.27,2632.13 2656.9,2632.14 1521.01,1496.26 1522.39,1496.25 1523.76,1496.21 1525.13,1496.13 1526.49,1496.03 1527.84,1495.9 1529.18,1495.74 1530.51,1495.56 1531.84,1495.34 1533.15,1495.1 1534.46,1494.83 1535.75,1494.53 1537.04,1494.2 1538.32,1493.85 1539.58,1493.48 1540.84,1493.07 1542.08,1492.64 1543.31,1492.19 1544.53,1491.71 1545.74,1491.21 1546.93,1490.68 1548.11,1490.12 1549.28,1489.55 1550.43,1488.95 1551.58,1488.33 1552.7,1487.68 1553.81,1487.01 1554.91,1486.32 1555.99,1485.61 1557.06,1484.88 1558.11,1484.12 1559.15,1483.35 "/>
     <polygon id="_527883920" class="fil1" points="1521.01,1496.26 2656.9,2632.14 2344.21,2630.84 1208.33,1494.96 "/>
     <polygon id="_527884280" class="fil1" points="1208.33,1494.96 2344.21,2630.84 2334.35,2630.71 2325.18,2630.39 2316.68,2629.9 2308.79,2629.23 2301.49,2628.42 2294.74,2627.46 2288.49,2626.36 2282.71,2625.15 2277.37,2623.82 2272.42,2622.39 2267.82,2620.88 2263.55,2619.28 2259.55,2617.62 2255.8,2615.91 2252.26,2614.15 2248.88,2612.36 2245.64,2610.54 2242.49,2608.71 2239.39,2606.89 2236.31,2605.07 2233.2,2603.27 2230.04,2601.51 2226.79,2599.79 2223.4,2598.13 2219.83,2596.53 2216.06,2595.01 2212.04,2593.58 2207.74,2592.25 2203.11,2591.03 2198.12,2589.93 2192.73,2588.96 2186.91,2588.13 1051.03,1452.25 1056.85,1453.08 1062.24,1454.05 1067.23,1455.15 1071.85,1456.37 1076.16,1457.7 1080.18,1459.13 1083.95,1460.65 1087.51,1462.25 1090.9,1463.91 1094.16,1465.63 1097.32,1467.39 1100.42,1469.19 1103.51,1471 1106.6,1472.83 1109.76,1474.66 1113,1476.47 1116.38,1478.27 1119.92,1480.03 1123.67,1481.74 1127.67,1483.4 1131.94,1484.99 1136.54,1486.51 1141.49,1487.94 1146.83,1489.26 1152.61,1490.48 1158.86,1491.57 1165.61,1492.53 1172.91,1493.35 1180.8,1494.01 1189.3,1494.51 1198.47,1494.83 "/>
     <polygon id="_527883704" class="fil1" points="1051.03,1452.25 2186.91,2588.13 2185.3,2587.94 2183.66,2587.76 2181.98,2587.59 2180.26,2587.43 2178.51,2587.28 2176.72,2587.15 2174.9,2587.03 2173.04,2586.91 2171.14,2586.82 2169.2,2586.73 2167.22,2586.66 2165.21,2586.59 2163.15,2586.55 2161.04,2586.51 2158.9,2586.49 2156.71,2586.49 1020.83,1450.6 1023.02,1450.61 1025.16,1450.63 1027.26,1450.66 1029.32,1450.71 1031.34,1450.77 1033.32,1450.85 1035.26,1450.93 1037.16,1451.03 1039.02,1451.14 1040.84,1451.27 1042.63,1451.4 1044.38,1451.55 1046.09,1451.71 1047.77,1451.88 1049.42,1452.06 "/>
     <polygon id="_527883968" class="fil1" points="1020.83,1450.6 2156.71,2586.49 2049.61,2587.46 913.725,1451.58 "/>
     <polygon id="_527883776" class="fil1" points="687.33,1325.06 1823.21,2460.94 1821.64,2460.95 1820.13,2460.96 1818.67,2460.98 1817.27,2461.01 1815.93,2461.05 1814.65,2461.1 1813.43,2461.16 1812.26,2461.23 676.382,1325.34 677.546,1325.28 678.768,1325.22 680.051,1325.17 681.39,1325.13 682.789,1325.1 684.245,1325.08 685.759,1325.07 "/>
     <polygon id="_527884016" class="fil1" points="676.382,1325.34 1812.26,2461.23 1602.92,2472.56 467.038,1336.67 "/>
     <polygon id="_527884568" class="fil1" points="769.993,1408.51 1905.87,2544.39 1599.88,2534.79 464,1398.91 "/>
     <polygon id="_527885096" class="fil1" points="761.672,1491.08 1897.55,2626.96 1603.79,2609.1 467.906,1473.22 "/>
     <polygon id="_527884928" class="fil1" points="739.11,1343.45 1874.99,2479.33 1872.9,2477.52 1870.73,2475.8 1868.5,2474.16 1866.2,2472.6 1863.83,2471.13 1861.39,2469.75 1858.88,2468.46 1856.3,2467.27 1853.65,2466.16 1850.93,2465.16 1848.14,2464.26 1845.27,2463.46 1842.34,2462.77 1839.33,2462.18 1836.25,2461.71 1833.1,2461.34 1829.88,2461.09 1826.58,2460.96 1823.21,2460.94 687.33,1325.06 690.7,1325.08 693.996,1325.21 697.219,1325.46 700.371,1325.82 703.45,1326.3 706.457,1326.89 709.392,1327.58 712.256,1328.38 715.048,1329.28 717.769,1330.28 720.42,1331.38 723.001,1332.58 725.51,1333.87 727.951,1335.25 730.32,1336.72 732.621,1338.28 734.853,1339.92 737.016,1341.64 "/>
     <polygon id="_527884952" class="fil1" points="787.429,1539.84 1923.31,2675.72 1921.24,2678.02 1919.11,2680.26 1916.91,2682.45 1914.65,2684.58 1912.32,2686.65 1909.93,2688.66 1907.48,2690.61 1904.96,2692.49 1902.37,2694.32 1899.71,2696.08 1896.99,2697.77 1894.19,2699.4 1891.33,2700.96 1888.4,2702.45 1885.4,2703.87 1882.33,2705.22 1879.19,2706.5 1875.98,2707.71 1872.69,2708.83 1869.33,2709.89 1865.9,2710.86 1862.4,2711.76 1858.82,2712.57 1855.17,2713.31 1851.44,2713.96 1847.64,2714.53 1843.76,2715.02 1839.81,2715.42 1835.78,2715.73 1831.67,2715.96 1827.48,2716.09 1823.21,2716.14 687.33,1580.26 691.596,1580.21 695.784,1580.07 699.895,1579.85 703.927,1579.54 707.882,1579.14 711.761,1578.65 715.563,1578.08 719.291,1577.43 722.943,1576.69 726.52,1575.87 730.023,1574.98 733.453,1574 736.811,1572.95 740.096,1571.82 743.308,1570.62 746.45,1569.34 749.521,1567.99 752.521,1566.57 755.451,1565.08 758.313,1563.52 761.105,1561.89 763.829,1560.2 766.485,1558.44 769.074,1556.61 771.597,1554.72 774.053,1552.78 776.443,1550.76 778.769,1548.69 781.029,1546.57 783.226,1544.38 785.359,1542.14 "/>
     <polygon id="_527884544" class="fil1" points="913.725,1451.58 2049.61,2587.46 2045.32,2589.49 2040.94,2591.65 2036.49,2593.94 2031.97,2596.34 2027.41,2598.86 2022.79,2601.47 2018.15,2604.18 2013.48,2606.97 2008.81,2609.83 2004.13,2612.76 1999.46,2615.75 1994.82,2618.78 1990.21,2621.85 1985.64,2624.95 1981.13,2628.07 1976.69,2631.2 1972.32,2634.34 1968.04,2637.47 1963.85,2640.59 1959.78,2643.68 1955.82,2646.74 1951.99,2649.75 1948.31,2652.72 1944.78,2655.63 1941.41,2658.47 1938.22,2661.24 1935.21,2663.92 1932.39,2666.5 1929.78,2668.99 1927.4,2671.36 1925.23,2673.6 1923.31,2675.72 787.429,1539.84 789.351,1537.72 791.514,1535.47 793.903,1533.1 796.511,1530.62 799.325,1528.04 802.335,1525.36 805.529,1522.59 808.897,1519.75 812.429,1516.84 816.113,1513.87 819.938,1510.85 823.894,1507.79 827.97,1504.7 832.155,1501.59 836.437,1498.46 840.806,1495.32 845.253,1492.19 849.764,1489.07 854.33,1485.97 858.94,1482.9 863.583,1479.86 868.248,1476.88 872.924,1473.95 877.6,1471.09 882.266,1468.3 886.912,1465.59 891.524,1462.97 896.094,1460.46 900.609,1458.05 905.061,1455.77 909.437,1453.61 "/>
     <polygon id="_527884856" class="fil1" points="687.33,1580.26 1823.21,2716.14 1809.97,2715.65 674.09,1579.77 "/>
     <polygon id="_527884736" class="fil1" points="674.09,1579.77 1809.97,2715.65 1602.92,2666.82 467.038,1530.94 "/>
    </g>
    <path id="_517156096" class="fil1" d="M1314.81 823.537l0 365.423c0,12.848 -10.4173,23.2654 -23.2666,23.2654l-535.094 0c-12.8492,0 -23.2666,-10.4173 -23.2666,-23.2654l0 -383.222 0 -0.447638 0 -0.0614174c-33.3626,-14.3055 -61.7268,-34.5685 -82.5072,-58.8945 -24.1559,-28.278 -38.1154,-61.9004 -38.1154,-98.145 0,-51.1949 27.7748,-97.0749 72.678,-129.865 42.7961,-31.2508 101.456,-50.5807 165.834,-50.5807 34.0347,0 66.4477,5.3752 95.7331,15.0319 24.4429,8.05867 46.7563,19.1374 66.0851,32.6032 6.2941,-4.16929 12.8681,-8.10827 19.6961,-11.798 15.3709,-8.3067 32.0339,-15.3543 49.7115,-20.941 30.3319,-9.58347 63.7075,-14.8961 98.693,-14.8961 68.7768,0 131.418,20.6315 177.098,53.9882 47.7863,34.8957 77.3434,83.6835 77.3434,138.09 0,36.965 -13.6961,71.393 -37.5461,100.714 -20.6929,25.4386 -49.1351,46.9335 -82.8343,62.6528l-0.242126 0.114567 0 0.233858zm269.186 609.736l0 0zm-896.67 -145.919c45.9319,0 78.3556,15.6307 100.099,40.4138 18.5965,21.1996 77.2158,64.5898 122.001,86.2335 0.975591,-0.368504 2.22284,-0.563386 3.8067,-0.563386l101.517 -0.543308c14.5146,0 26.2807,-0.71693 36.0485,-1.96536 65.9445,-8.42481 40.8248,-41.0764 155.356,-41.0764l315.291 0c5.76969,0 11.3953,0.844489 16.7587,2.41772 10.4551,3.08504 19.741,8.93741 27.3059,16.5024 0.518504,0.518504 1.02874,1.04646 1.52953,1.58268 0.0141732,0.0153543 0.0283465,0.0307087 0.0425197,0.0472441 10.2756,11.0339 16.6606,25.7504 16.9028,41.8985 0.00472441,0.0212599 0.00472441,0.0437008 0,0.0649607 0.00944883,0.302362 0.011811,0.604725 0.011811,0.907087 0,17.341 -7.0878,33.0874 -18.4866,44.5028 -1.68898,1.69016 -3.47481,3.28465 -5.34567,4.7752 -10.7799,8.60079 -24.4087,13.7398 -39.1536,13.7091l-312.685 -1.30158c-109.035,-0.348425 -92.7343,-34.7114 -157.298,-42.7075 -8.50631,-1.05354 -18.4158,-1.64882 -30.2008,-1.64882l-107.105 0.976772c-45.2516,20.8465 -107.099,66.378 -126.297,88.2627 -21.7429,24.7831 -54.1666,40.4138 -100.099,40.4138l-13.2402 -0.487796 -207.052 -48.8327c2.43543,-0.935434 5.10237,-1.37717 7.87442,-1.20709l201.47 12.5386c3.02362,0.188977 6.68268,0.281103 10.9476,0.281103 37.7906,0.512599 62.0493,-21.3851 74.3422,-51.4678l-293.766 -17.8618 302.549 -17.9256c0.757087,-6.9815 1.03937,-14.087 0.858662,-21.1937l-0.00590552 -0.294095 0.00590552 -0.294095c0.212599,-8.40237 -0.219685,-16.8036 -1.32047,-25.0004l-305.993 -9.60473 296.195 -25.8225c-12.7087,-28.2933 -36.5327,-48.5138 -72.8646,-48.0213 -4.26496,0.0011811 -7.92402,0.0921261 -10.9476,0.281103l-209.345 11.3315 207.052 -48.8315c5.27481,-0.328347 9.67678,-0.488977 13.2402,-0.488977z"/>
   </g>
  </g>
  <path class="fil2" d="M1024 -0.0011811c565.541,0 1024,458.461 1024,1024 0,565.541 -458.461,1024 -1024,1024 -565.541,0 -1024,-458.461 -1024,-1024 0,-565.541 458.461,-1024 1024,-1024z"/>
  <path class="fil3" d="M467.038 1530.94c2.43425,-0.935434 5.10237,-1.37717 7.8756,-1.20827l201.469 12.5398c3.02362,0.188977 6.68386,0.281103 10.9476,0.281103 59.4036,0.805512 85.3701,-53.7615 83.9847,-108.449l-0.00708662 -0.294095 0.00708662 -0.294095c1.38543,-54.6874 -24.5811,-109.253 -83.9847,-108.449 -4.26378,0.0011811 -7.92402,0.0921261 -10.9476,0.281103l-209.345 11.3315 207.053 -48.8315c5.27363,-0.328347 9.6756,-0.488977 13.239,-0.488977 45.9319,0 78.3556,15.6307 100.099,40.4138 21.2894,24.2693 95.028,77.6186 140.42,94.1327 0.271654,4.36181 0.432284,8.28072 0.488977,11.7709l0.00236221 0.133465 -0.00236221 0.133465c-0.056693,3.49016 -0.217323,7.40906 -0.488977,11.7709 -45.3922,16.5142 -119.131,69.8634 -140.42,94.1327 -21.7429,24.7831 -54.1666,40.4138 -100.099,40.4138l-13.239 -0.487796 -207.053 -48.8327z"/>
  <path class="fil3" d="M467.906 1473.22l314.11 19.0973c10.4126,0 18.854,-8.44135 18.854,-18.854 0,-10.4126 -8.44135,-18.854 -18.854,-18.854l-314.11 18.6106z"/>
  <path class="fil3" d="M464 1398.91l318.016 9.98268c10.4126,0 18.854,-8.44135 18.854,-18.854 0,-10.4126 -8.44135,-18.854 -18.854,-18.854l-318.016 27.7252z"/>
  <path class="fil3" d="M913.236 1413.44c-10.4126,0 -6.26812,8.44135 -6.26812,18.854 0,10.4126 -3.70985,19.2886 6.70158,19.2886l107.16 -0.977954c101.236,0 64.0985,43.9618 187.498,44.3563l312.686 1.30276 0.0011811 0c17.341,0 33.0933,-7.07953 44.4992,-18.4854 11.4059,-11.4071 18.4866,-27.1595 18.4866,-44.4992l0 -0.0011811 0 -0.00236221c0,-17.341 -7.08071,-33.0933 -18.4866,-44.5004 -11.4071,-11.4059 -26.7248,-18.9201 -44.0658,-18.9201l-315.291 0c-131.497,0 -78.9048,43.0418 -191.405,43.0418l-101.517 0.543308z"/>
  <path class="fil4" d="M1050.92 1432.37l0.109843 19.8862c64.5638,7.99607 48.2634,42.3591 157.297,42.7075l312.686 1.30276c34.5603,0.0720473 62.9871,-28.2638 62.9871,-62.9882 0,-0.303544 -0.00708662,-0.604725 -0.011811,-0.907087l-533.069 -0.0011811z"/>
  <path class="fil5" d="M1050.8 1410.93l0.116929 21.0059 0.00236221 0.429922 533.069 0.0011811 -0.0011811 -0.0661418c-0.53504,-34.1362 -29.139,-62.4473 -62.5394,-62.4473l-315.291 0c-114.532,0 -89.4119,32.6516 -155.356,41.0764z"/>
  <path class="fil6" d="M1314.81 823.303l0 365.657c0,12.848 -10.4173,23.2654 -23.2666,23.2654l-535.094 0c-12.8492,0 -23.2666,-10.4173 -23.2666,-23.2654l0 -383.731c-33.3626,-14.3055 -61.7268,-34.5685 -82.5072,-58.8945 -24.1559,-28.278 -38.1154,-61.9004 -38.1154,-98.145 0,-51.1949 27.7748,-97.0749 72.678,-129.865 42.7961,-31.2508 101.456,-50.5807 165.834,-50.5807 34.0347,0 66.4477,5.3752 95.7331,15.0319 24.4429,8.05867 46.7563,19.1374 66.0851,32.6032 20.4614,-13.5543 43.8756,-24.6709 69.4075,-32.739 30.3319,-9.58347 63.7075,-14.8961 98.693,-14.8961 68.7768,0 131.418,20.6315 177.098,53.9882 47.7863,34.8957 77.3434,83.6835 77.3434,138.09 0,36.965 -13.6961,71.393 -37.5461,100.714 -20.7425,25.5 -49.2721,47.0363 -83.0764,62.7674z"/>
  <path class="fil7" d="M1314.81 823.537l0 -0.233858 0.242126 -0.114567 0 -0.0389764c-47.98,23.7036 -106.938,37.6796 -170.678,37.6796 -77.5879,0 -148.099,-20.7024 -200.339,-54.4619 -31.2189,13.0276 -66.6284,20.3823 -104.157,20.3823 -38.5488,0 -74.863,-7.75985 -106.696,-21.4595l0 0.447638c69.5882,49.2863 132.131,54.7335 210.853,22.8201 129.421,81.2481 241.602,56.9693 370.774,-5.02087z"/>
  <path class="fil8" d="M1397.89 760.536c23.85,-29.3209 37.5461,-63.7489 37.5461,-100.714 0,-54.4063 -29.5571,-103.194 -77.3434,-138.09 -45.6804,-33.3567 -108.321,-53.9882 -177.098,-53.9882 -34.9855,0 -68.3611,5.3126 -98.693,14.8961 -17.6728,5.58426 -34.3323,12.6295 -49.6996,20.9339 -73.5827,41.7815 -121.993,112.722 -121.993,193.207 0,39.7559 11.8122,77.1816 32.6339,109.917 0.265748,-0.111024 0.531496,-0.220866 0.796064,-0.330709 52.2402,33.7595 122.751,54.4619 200.339,54.4619 63.7394,0 122.698,-13.976 170.678,-37.6796l0 0.0389764c33.6992,-15.7193 62.1414,-37.2142 82.8343,-62.6528z"/>
 </g>
</svg>
