<?xml version="1.0" encoding="utf-8"?>
<!-- Generator: Adobe Illustrator 16.0.0, SVG Export Plug-In . SVG Version: 6.00 Build 0)  -->
<!DOCTYPE svg PUBLIC "-//W3C//DTD SVG 1.0//EN" "http://www.w3.org/TR/2001/REC-SVG-20010904/DTD/svg10.dtd">
<svg version="1.0" id="Layer_1" xmlns="http://www.w3.org/2000/svg" xmlns:xlink="http://www.w3.org/1999/xlink" x="0px" y="0px"
	 width="100px" height="100px" viewBox="0 0 100 100" enable-background="new 0 0 100 100" xml:space="preserve">
<path fill="#BDBDBD" d="M23.332,50v6.667H30l2.668,26.699C33.033,87.016,36.335,90,40,90h20c3.665,0,6.965-2.984,7.33-6.634
	L70,56.667h6.666V50H23.332z"/>
<path fill="#7CB342" d="M63.332,50c0-11.045,8.956-20,20-20v-6.667c-9.977,0-18.658,5.487-23.23,13.604
	c2.242-8.32,6.582-15.965,12.842-22.221l-4.713-4.712c-7.609,7.603-12.531,16.845-14.898,26.584V10h-6.666v26.588
	c-2.367-9.739-7.284-18.981-14.895-26.585l-4.713,4.713c6.262,6.261,10.602,13.9,12.844,22.224
	c-4.573-8.119-13.258-13.606-23.234-13.606V30c11.044,0,20,8.955,20,20H63.332z"/>
<path fill="#F5F5F5" d="M63.301,56.667H36.699l2.605,26.035c0.021,0.239,0.454,0.631,0.695,0.631h20
	c0.243,0,0.673-0.388,0.695-0.631L63.301,56.667z"/>
</svg>
