<?xml version="1.0" encoding="UTF-8"?>
<!DOCTYPE svg PUBLIC "-//W3C//DTD SVG 1.1//EN" "http://www.w3.org/Graphics/SVG/1.1/DTD/svg11.dtd">
<!-- Creator: CorelDRAW -->
<svg xmlns="http://www.w3.org/2000/svg" xml:space="preserve" width="6.82666in" height="6.82666in" style="shape-rendering:geometricPrecision; text-rendering:geometricPrecision; image-rendering:optimizeQuality; fill-rule:evenodd; clip-rule:evenodd"
viewBox="0 0 6.82666 6.82666"
 xmlns:xlink="http://www.w3.org/1999/xlink">
 <defs>
  <style type="text/css">
   <![CDATA[
    .fil4 {fill:none}
    .fil1 {fill:#9DD5C0}
    .fil2 {fill:#EBE5DF}
    .fil3 {fill:#F19A7B}
    .fil0 {fill:#333333;fill-rule:nonzero}
   ]]>
  </style>
 </defs>
 <g id="Layer_x0020_1">
  <metadata id="CorelCorpID_0Corel-Layer"/>
  <g id="_626428424">
   <g>
    <path id="_626428832" class="fil0" d="M3.33975 2.13846c0.393858,0 0.750445,0.159654 1.00856,0.417768 0.258114,0.258114 0.417768,0.614701 0.417768,1.00856 0,0.393858 -0.159654,0.750445 -0.417768,1.00856 -0.258114,0.258114 -0.614701,0.417768 -1.00856,0.417768 -0.393858,0 -0.750445,-0.159654 -1.00856,-0.417768 -0.258114,-0.258114 -0.417768,-0.614701 -0.417768,-1.00856 0,-0.393858 0.159654,-0.750445 0.417768,-1.00856 0.258114,-0.258114 0.614701,-0.417768 1.00856,-0.417768zm0.895433 0.530894c-0.229154,-0.229154 -0.54574,-0.370894 -0.895433,-0.370894 -0.349693,0 -0.66628,0.14174 -0.895433,0.370894 -0.229154,0.229154 -0.370894,0.54574 -0.370894,0.895433 0,0.349693 0.14174,0.66628 0.370894,0.895433 0.229154,0.229154 0.54574,0.370894 0.895433,0.370894 0.349693,0 0.66628,-0.14174 0.895433,-0.370894 0.229154,-0.229154 0.370894,-0.54574 0.370894,-0.895433 0,-0.349693 -0.14174,-0.66628 -0.370894,-0.895433z"/>
    <path id="_626428928" class="fil0" d="M3.33975 2.46595c0.303429,0 0.578142,0.123 0.776992,0.32185 0.19885,0.19885 0.32185,0.473563 0.32185,0.776992 0,0.303429 -0.123,0.578146 -0.32185,0.776996 -0.19885,0.19885 -0.473563,0.32185 -0.776992,0.32185 -0.303429,0 -0.578146,-0.123 -0.776996,-0.32185 -0.19885,-0.19885 -0.32185,-0.473567 -0.32185,-0.776996 0,-0.303429 0.123,-0.578142 0.32185,-0.776992 0.19885,-0.19885 0.473567,-0.32185 0.776996,-0.32185zm0.663866 0.434976c-0.16989,-0.16989 -0.404606,-0.274976 -0.663866,-0.274976 -0.25926,0 -0.49398,0.105087 -0.66387,0.274976 -0.16989,0.16989 -0.274976,0.404606 -0.274976,0.663866 0,0.25926 0.105087,0.49398 0.274976,0.66387 0.16989,0.16989 0.40461,0.274976 0.66387,0.274976 0.25926,0 0.493976,-0.105087 0.663866,-0.274976 0.16989,-0.16989 0.274976,-0.40461 0.274976,-0.66387 0,-0.25926 -0.105087,-0.493976 -0.274976,-0.663866z"/>
   </g>
   <g>
    <g>
     <path id="_626429120" class="fil0" d="M5.05039 4.86939c0.0340984,-0.322681 0.0474213,-0.957803 0.0523543,-1.19316l0.000255906 -0.0122008c0.00304331,-0.144787 0.00260236,-0.295421 0.00216142,-0.44772 -0.00214173,-0.735169 -0.0043937,-1.50833 0.380161,-1.84459l0.0525 0.06 -0.0526614 -0.0602244c0.0332598,-0.0290827 0.0838031,-0.0256969 0.112886,0.00756299 0.00750787,0.00858661 0.0128465,0.0183268 0.0160709,0.0285512l0.213256 0.519965 -0.073752 0.030311 0.0740157 -0.0303583c0.00427953,0.0104331 0.00618898,0.0212441 0.00598425,0.0318425l0 1.70617 0 1.21241c0,0.183622 0.0297244,0.275315 0.0821378,0.437004 0.00572835,0.0176811 0.0117283,0.0361693 0.0179646,0.0556417l-0.075937 0.024374 0.076185 -0.0244094c0.0134803,0.0420748 -0.00970079,0.0871142 -0.0517756,0.100594 -0.00867717,0.00277953 -0.0174803,0.00399606 -0.0261102,0.00381496l-0.918528 0c-0.0441811,0 -0.08,-0.0358189 -0.08,-0.08 0,-0.0166614 0.00509449,-0.0321339 0.013811,-0.0449449 0.0550787,-0.0948504 0.0952559,-0.165823 0.123016,-0.235488 0.027815,-0.0697795 0.0452087,-0.142846 0.0560039,-0.245138zm0.211732 -1.19004c-0.00498425,0.237776 -0.0184409,0.879417 -0.0529843,1.20629 -0.0124291,0.117783 -0.0331457,0.203638 -0.066626,0.287634 -0.0188583,0.0473307 -0.0411024,0.0925591 -0.0677677,0.141685l0.673402 0c-0.0477717,-0.149063 -0.0745236,-0.249417 -0.0745236,-0.43702l0 -1.21241 0 -1.69257 -0.162287 -0.395697c-0.250547,0.331303 -0.248654,1.00021 -0.246795,1.63905 0.000444882,0.153681 0.000893701,0.305677 -0.00216142,0.450846l-0.000255906 0.0122008z"/>
     <path id="_626429360" class="fil0" d="M5.89333 4.21853c0.0441811,0 0.08,-0.0358189 0.08,-0.08 0,-0.0441811 -0.0358189,-0.08 -0.08,-0.08l-0.900535 0c-0.0441811,0 -0.08,0.0358189 -0.08,0.08 0,0.0441811 0.0358189,0.08 0.08,0.08l0.900535 0z"/>
    </g>
    <g>
     <path id="_626429384" class="fil0" d="M1.93622 1.43311c0,-0.0441811 -0.0358189,-0.08 -0.08,-0.08 -0.0441811,0 -0.08,0.0358189 -0.08,0.08l0 0.893665c0,0.087752 -0.0144606,0.162669 -0.0394921,0.225031 -0.0257402,0.0641299 -0.0626772,0.115425 -0.106374,0.153961 -0.304012,0.19339 -0.217657,1.53789 -0.168732,2.29926 0.0078189,0.121677 0.0146654,0.228213 0.0188228,0.309929l-0.171319 0c0.00362598,-0.0711181 0.00930709,-0.163638 0.0158425,-0.269972 0.0456496,-0.742571 0.132016,-2.14839 -0.162291,-2.33628 -0.0446535,-0.0384055 -0.0824646,-0.0899173 -0.108807,-0.154598 -0.0256772,-0.0630512 -0.0405433,-0.13876 -0.0405433,-0.227331l0 -0.893665c0,-0.0441811 -0.0358189,-0.08 -0.08,-0.08 -0.0441811,0 -0.08,0.0358189 -0.08,0.08l0 0.893665c0,0.109953 0.0192205,0.205815 0.0524173,0.287331 0.0366299,0.089937 0.0902047,0.162217 0.153972,0.216724 0.00529528,0.00507087 0.011378,0.0095 0.0181929,0.0130827l8.26772e-005 -0.000153543c0.215366,0.113421 0.131598,1.47606 0.0875984,2.19185 -0.00904724,0.147193 -0.0164409,0.267457 -0.0191457,0.350122 -0.000350394,0.00302756 -0.000531496,0.0061063 -0.000531496,0.00922835 0,0.0441811 0.0358189,0.08 0.08,0.08l0.337713 0 0 -3.93701e-006c0.000807087,0 0.00161024,-7.87402e-006 0.00241732,-3.14961e-005 0.0441614,-0.00133465 0.0788819,-0.0382205 0.0775472,-0.0823819l-0.000283465 7.87402e-006c-0.00288583,-0.0953701 -0.011689,-0.232256 -0.0223071,-0.39752 -0.0469094,-0.729961 -0.129957,-2.02285 0.0919213,-2.15313 0.00619685,-0.00296457 0.0121181,-0.00678346 0.0175827,-0.0114685l-0.000137795 -0.00015748c0.0641693,-0.0550472 0.117972,-0.12811 0.154488,-0.219087 0.0325551,-0.0811142 0.0513661,-0.176016 0.0513661,-0.284409l0 -0.893665z"/>
     <path id="_626429072" class="fil0" d="M1.29844 1.43311c0,-0.0441811 -0.0358189,-0.08 -0.08,-0.08 -0.0441811,0 -0.08,0.0358189 -0.08,0.08l0 1.05216c0,0.0441811 0.0358189,0.08 0.08,0.08 0.0441811,0 0.08,-0.0358189 0.08,-0.08l0 -1.05216z"/>
     <path id="_626428064" class="fil0" d="M1.65111 1.43311c0,-0.0441811 -0.0358189,-0.08 -0.08,-0.08 -0.0441811,0 -0.08,0.0358189 -0.08,0.08l0 1.05216c0,0.0441811 0.0358189,0.08 0.08,0.08 0.0441811,0 0.08,-0.0358189 0.08,-0.08l0 -1.05216z"/>
    </g>
   </g>
  </g>
  <path class="fil1" d="M4.11674 2.7878c0.19885,0.19885 0.32185,0.473563 0.32185,0.776992 0,0.303429 -0.123,0.578146 -0.32185,0.776996 -0.19885,0.19885 -0.473563,0.32185 -0.776992,0.32185 -0.303429,0 -0.578146,-0.123 -0.776996,-0.32185 -0.19885,-0.19885 -0.32185,-0.473567 -0.32185,-0.776996 0,-0.303429 0.123,-0.578142 0.32185,-0.776992 0.19885,-0.19885 0.473567,-0.32185 0.776996,-0.32185 0.303429,0 0.578142,0.123 0.776992,0.32185zm-0.776992 -0.489335c-0.349693,0 -0.66628,0.14174 -0.895433,0.370894 -0.229154,0.229154 -0.370894,0.54574 -0.370894,0.895433 0,0.349693 0.14174,0.66628 0.370894,0.895433 0.229154,0.229154 0.54574,0.370894 0.895433,0.370894 0.349693,0 0.66628,-0.14174 0.895433,-0.370894 0.229154,-0.229154 0.370894,-0.54574 0.370894,-0.895433 0,-0.349693 -0.14174,-0.66628 -0.370894,-0.895433 -0.229154,-0.229154 -0.54574,-0.370894 -0.895433,-0.370894z"/>
  <path class="fil1" d="M4.27859 3.56479c0,-0.25926 -0.105087,-0.493976 -0.274976,-0.663866 -0.16989,-0.16989 -0.404606,-0.274976 -0.663866,-0.274976 -0.25926,0 -0.49398,0.105087 -0.66387,0.274976 -0.16989,0.16989 -0.274976,0.404606 -0.274976,0.663866 0,0.25926 0.105087,0.49398 0.274976,0.66387 0.16989,0.16989 0.40461,0.274976 0.66387,0.274976 0.25926,0 0.493976,-0.105087 0.663866,-0.274976 0.16989,-0.16989 0.274976,-0.40461 0.274976,-0.66387z"/>
  <path class="fil2" d="M5.26454 3.2163c0.000444882,0.153681 0.000893701,0.305677 -0.00216142,0.450846l-0.000255906 0.0122008c-0.00179134,0.0853976 -0.00467323,0.222886 -0.00923228,0.379177l0.420732 0 0 -0.393 0 -1.69257 -0.162287 -0.395697c-0.250547,0.331303 -0.248654,1.00021 -0.246795,1.63905z"/>
  <path class="fil3" d="M5.67363 4.21853l-0.425827 0c-0.00833465,0.239988 -0.020622,0.496453 -0.0386575,0.66711 -0.0124291,0.117783 -0.0331457,0.203638 -0.066626,0.287634 -0.0188583,0.0473307 -0.0411024,0.0925591 -0.0677677,0.141685l0.673402 0c-0.0477717,-0.149063 -0.0745236,-0.249417 -0.0745236,-0.43702l0 -0.659409z"/>
  <path class="fil2" d="M1.57111 1.35311c0.0441811,0 0.08,0.0358189 0.08,0.08l0 1.05216c0,0.0441811 -0.0358189,0.08 -0.08,0.08 -0.0441811,0 -0.08,-0.0358189 -0.08,-0.08l0 -1.05216c0,-0.0441811 0.0358189,-0.08 0.08,-0.08zm-0.352669 0c0.0441811,0 0.08,0.0358189 0.08,0.08l0 1.05216c0,0.0441811 -0.0358189,0.08 -0.08,0.08 -0.0441811,0 -0.08,-0.0358189 -0.08,-0.08l0 -1.05216c0,-0.0441811 0.0358189,-0.08 0.08,-0.08zm-0.28511 0c0.0441811,0 0.08,0.0358189 0.08,0.08l0 0.893665c0,0.0885709 0.0148661,0.16428 0.0405433,0.227331 0.0263425,0.0646811 0.0641535,0.116193 0.108807,0.154598 0.294307,0.18789 0.207941,1.59371 0.162291,2.33628 -0.00653543,0.106335 -0.0122165,0.198854 -0.0158425,0.269972l0.171319 0c-0.00415748,-0.0817165 -0.0110039,-0.188252 -0.0188228,-0.309929 -0.0489252,-0.76137 -0.13528,-2.10587 0.168732,-2.29926 0.0436969,-0.0385354 0.0806339,-0.0898307 0.106374,-0.153961 0.0250315,-0.0623622 0.0394921,-0.13728 0.0394921,-0.225031l0 -0.893665c0,-0.0441811 0.0358189,-0.08 0.08,-0.08l-0.285114 0 -0.352669 0 -0.28511 0z"/>
 </g>
 <rect class="fil4" width="6.82666" height="6.82666"/>
</svg>
