<?xml version="1.0" encoding="UTF-8"?>
<!DOCTYPE svg PUBLIC "-//W3C//DTD SVG 1.1//EN" "http://www.w3.org/Graphics/SVG/1.1/DTD/svg11.dtd">
<!-- Creator: CorelDRAW -->
<svg xmlns="http://www.w3.org/2000/svg" xml:space="preserve" width="6.82666in" height="6.82666in" style="shape-rendering:geometricPrecision; text-rendering:geometricPrecision; image-rendering:optimizeQuality; fill-rule:evenodd; clip-rule:evenodd"
viewBox="0 0 6.82666 6.82666"
 xmlns:xlink="http://www.w3.org/1999/xlink">
 <defs>
  <style type="text/css">
   <![CDATA[
    .fil3 {fill:none}
    .fil0 {fill:#BE7A17}
    .fil2 {fill:#CC871E}
    .fil1 {fill:#FF9800}
   ]]>
  </style>
 </defs>
 <g id="Layer_x0020_1">
  <metadata id="CorelCorpID_0Corel-Layer"/>
  <g id="_256027736">
   <path id="_256028000" class="fil0" d="M4.63184 0.958795c0.646528,-0.129083 0.987201,0.476563 0.606622,0.976921 -0.00204331,0.00268898 -0.00422441,0.0055 -0.00636614,0.00824016 -0.443232,-0.024748 -0.448705,-0.0196378 -0.92448,-0.0524606 -0.0310315,-0.0282402 -0.048378,-0.047252 -0.048378,-0.047252 -0.00637402,-0.568598 0.058563,-0.735929 0.372602,-0.885449z"/>
   <path id="_256027784" class="fil1" d="M4.71912 3.46875c-0.194992,-0.559697 -0.281791,-0.99678 -0.302268,-1.33758 -0.00425984,-0.00440551 -0.00647638,-0.00683465 -0.00647638,-0.00683465 -0.00637795,-0.568594 0.058563,-1.01602 0.372602,-1.16554 0.0179094,-0.0035748 0.0349055,-0.00533465 0.0523425,-0.00738583 -0.0125512,-0.000811024 -0.0253189,-0.00311811 -0.0378622,-0.00391339 -0.908531,-0.0575315 -1.80748,-0.0629449 -2.7116,-0.0941654l-7.87402e-005 2.3622e-005 0.029248 0.0010315c-0.017437,0.00205118 -0.0351102,0.00484646 -0.0530236,0.00842126 -0.314039,0.149524 -0.37898,0.596945 -0.372602,1.16554 0,0 0.00221654,0.0024252 0.00648031,0.00683071 0.15137,1.23132 0.578866,1.07298 0.259957,3.04242l2.09757 -0.00722441c-0.18102,0.145803 -0.267799,0.443488 -0.166311,0.650772 0.0665945,0.169449 0.405571,0.225173 0.588575,0.252173 0.306539,-0.109551 0.903315,-0.610488 0.243441,-2.50457z"/>
   <path id="_256027664" class="fil0" d="M3.99677 5.06659c0.019315,0.00110236 0.038622,0.00257874 0.0566378,0.00377953 0.346461,0.0230984 0.43411,0.363425 0.263248,0.593055 -0.000984252,0.0013189 -0.00199606,0.00265748 -0.00300787,0.00398031 -0.218185,-0.0055 -0.220803,-0.00301181 -0.455098,-0.011874 -0.0156614,-0.0129016 -0.0244606,-0.0216378 -0.0244606,-0.0216378 -0.0113937,-0.268429 0.0105157,-0.492307 0.162681,-0.567303z"/>
   <path id="_256027952" class="fil2" d="M4.05341 5.07037l-2.08409 -0.138835 -0.293862 0c-0.300945,0.110378 -0.355374,0.588453 0,0.849488l2.78411 0.190602c0.0127835,0.00088189 0.0290984,0.00409055 -0.000799213,-0.0016063 -0.426445,-0.0814843 -0.698228,-0.53485 -0.405362,-0.89965z"/>
  </g>
 </g>
 <rect class="fil3" width="6.82666" height="6.82666"/>
</svg>
